<svg xmlns="http://www.w3.org/2000/svg" viewBox="0 0 343.49 300.95"><defs><style>.cls-1{fill:#434441;}.cls-2,.cls-5{fill:#fff;}.cls-3{fill:#b9bcb5;}.cls-10,.cls-4{fill:none;}.cls-4,.cls-5{stroke:#000;}.cls-10,.cls-4,.cls-5{stroke-miterlimit:10;}.cls-4{stroke-width:0.77px;}.cls-5{stroke-width:2.56px;}.cls-6{fill:#51c6ff;}.cls-7{fill:#f5c207;}.cls-8{fill:#c42d26;}.cls-9{fill:#a32424;}.cls-10{stroke:#b28f04;stroke-linecap:round;stroke-width:4px;}</style></defs><title>Asset 1</title><g id="Layer_2" data-name="Layer 2"><g id="heart"><g id="HeartLegRight"><polygon id="_Path_" data-name="&lt;Path&gt;" class="cls-1" points="169.58 289.5 164.75 289.5 172.88 252.93 164.75 197.37 179.44 197.37 184.59 253.04 169.58 289.5"/><path id="_Path_2" data-name="&lt;Path&gt;" class="cls-2" d="M216.81,289.41H201.22v11.53H231c1.85,0,3.16-1.23,2.55-2.4l-.1-.19C230.58,292.91,224,289.41,216.81,289.41Z" transform="translate(-36.89)"/><path id="_Path_3" data-name="&lt;Path&gt;" class="cls-3" d="M205.59,289.41h-4.37v11.53H213C209.19,292.71,205.59,289.41,205.59,289.41Z" transform="translate(-36.89)"/></g><path class="cls-4" d="M133.64,103.48" transform="translate(-36.89)"/><polyline class="cls-1" points="329.48 86.82 290.76 112.87 224.78 124.99 226.04 112.18 286.64 104.07 327.01 83.3"/><path class="cls-5" d="M55.1,168.14" transform="translate(-36.89)"/><path id="_Path_4" data-name="&lt;Path&gt;" class="cls-2" d="M361.31,94.78l-6.55-9.36a3.69,3.69,0,0,1,.72-5.15l9.42-7.13a3.69,3.69,0,0,1,5.15.72l6.55,9.36a3.69,3.69,0,0,1-.72,5.15l-9.42,7.13A3.69,3.69,0,0,1,361.31,94.78Z" transform="translate(-36.89)"/><path class="cls-2" d="M320.26,16.19l1.48,3.37,9.8-3.52-9.3,4.67,6.46,14.73,5-1.81L329,36l2.32,5.3a1.14,1.14,0,0,0,1.5.59l12.81-5.62L333.66,9.07l-12.81,5.62A1.14,1.14,0,0,0,320.26,16.19Z" transform="translate(-36.89)"/><rect class="cls-6" x="304.73" y="46.54" width="97.67" height="6.45" rx="3.22" ry="3.22" transform="translate(413.06 393.54) rotate(-113.67)"/><rect id="_Rectangle_" data-name="&lt;Rectangle&gt;" class="cls-2" x="356.52" y="71.08" width="5.64" height="15.58" rx="2.82" ry="2.82" transform="translate(59.94 -178.88) rotate(32.1)"/><rect id="_Rectangle_2" data-name="&lt;Rectangle&gt;" class="cls-2" x="367.54" y="69.68" width="5.64" height="9.81" rx="2.25" ry="2.25" transform="translate(270.56 -297.93) rotate(69.03)"/><rect id="_Rectangle_3" data-name="&lt;Rectangle&gt;" class="cls-2" x="370.3" y="74.41" width="5.64" height="9.81" rx="2.25" ry="2.25" transform="translate(267.54 -295.9) rotate(67.63)"/><g id="layer1"><path id="path2361" class="cls-7" d="M113.38,0C37-1.32-33.71,118.14,172.25,242a.91.91,0,0,1,1.33,0C386.21,114.19,304.05-9,225.06.57c-30.74,3.72-45.31,20.79-52.14,35.52C166.08,21.41,151.57,4.29,120.77.57c-2.45-.28-4.89-.5-7.39-.56Z" transform="translate(-36.89)"/></g><path class="cls-8" d="M237.32,128.87H121.55c2.54,9.39,9.26,17.69,18.67,23.82h78.43C228.06,146.56,234.77,138.26,237.32,128.87Z" transform="translate(-36.89)"/><path class="cls-2" d="M238.45,120.45h-118a32.14,32.14,0,0,0,1.13,8.42H237.32A32.14,32.14,0,0,0,238.45,120.45Z" transform="translate(-36.89)"/><path class="cls-9" d="M180.82,145.13A18,18,0,0,1,183,149a12.19,12.19,0,0,0-5.83-3.82c-8.7.5-15.45,4.06-15.45,8.39,0,4.67,7.85,8.46,17.54,8.46s17.54-3.79,17.54-8.46C196.81,149.14,189.78,145.51,180.82,145.13Z" transform="translate(-36.89)"/><path class="cls-2" d="M179.43,163.62c15.05,0,28.78-4.14,39.21-10.93H140.22C150.65,159.49,164.38,163.62,179.43,163.62Z" transform="translate(-36.89)"/><path class="cls-10" d="M200.67,169.89a66.36,66.36,0,0,1-44.87-.63" transform="translate(-36.89)"/></g><g id="HeartLegLeft"><path id="_Path_5" data-name="&lt;Path&gt;" class="cls-1" d="M125.45,289.5h-4.83l8.13-36.56s-5.72-42.68-8.13-55.57,13.77-9.94,14.69,0L140.46,253Z" transform="translate(-36.89)"/><path id="_Path_6" data-name="&lt;Path&gt;" class="cls-2" d="M136.21,289.41H120.62v11.53h29.77c1.85,0,3.16-1.23,2.55-2.4l-.1-.19C150,292.91,143.42,289.41,136.21,289.41Z" transform="translate(-36.89)"/><path id="_Path_7" data-name="&lt;Path&gt;" class="cls-3" d="M125,289.41h-4.37v11.53h11.83C128.59,292.71,125,289.41,125,289.41Z" transform="translate(-36.89)"/></g><g id="HeartEyes"><path class="cls-1" d="M202.76,88.28c2.46,0,4,2,4,4.45a4.45,4.45,0,1,1-8.89,0C197.88,90.27,200.3,88.28,202.76,88.28Z" transform="translate(-36.89)"/><circle class="cls-1" cx="121.26" cy="92.96" r="4.45"/><path class="cls-10" d="M145.3,88.69a10.63,10.63,0,0,1,14.41-6.49" transform="translate(-36.89)"/><path class="cls-10" d="M193.06,89a10.63,10.63,0,0,1,14.41-6.49" transform="translate(-36.89)"/></g><g id="HeartHandRight"><g id="HeartArm"><path class="cls-1" d="M50.66,218.77,41.42,173s12-53.92,14.06-65.59,14.06-4.14,11.35,6.06l-15.7,59.09,3.73,45.25" transform="translate(-36.89)"/><path class="cls-1" d="M0,49.36" transform="translate(-36.89)"/></g><rect id="_Rectangle_4" data-name="&lt;Rectangle&gt;" class="cls-2" x="61.62" y="212.48" width="4.55" height="12.58" rx="2.28" ry="2.28" transform="translate(176.35 390.93) rotate(155.34)"/><rect id="_Rectangle_5" data-name="&lt;Rectangle&gt;" class="cls-2" x="55.24" y="216.01" width="4.55" height="12.58" rx="2.28" ry="2.28" transform="translate(126.95 425.82) rotate(166.92)"/><rect id="_Rectangle_6" data-name="&lt;Rectangle&gt;" class="cls-2" x="48.2" y="216.05" width="4.55" height="12.58" rx="2.28" ry="2.28" transform="translate(73.01 442.46) rotate(177.68)"/><rect id="_Rectangle_7" data-name="&lt;Rectangle&gt;" class="cls-2" x="45.89" y="203.47" width="17.29" height="15.48" rx="2.97" ry="2.97" transform="translate(123.09 402.16) rotate(165.57)"/><path id="_Path_8" data-name="&lt;Path&gt;" class="cls-2" d="M49.68,220.15a4.21,4.21,0,0,1-.37-.94L45.92,206c0-.07,0-.14,0-.22a3,3,0,0,0-.9,2.93L47.35,218A3,3,0,0,0,49.68,220.15Z" transform="translate(-36.89)"/><rect id="_Rectangle_8" data-name="&lt;Rectangle&gt;" class="cls-2" x="61.12" y="201.01" width="4.55" height="12.58" rx="2.28" ry="2.28" transform="translate(235.16 266.1) rotate(122.74)"/><path id="_Path_9" data-name="&lt;Path&gt;" class="cls-2" d="M50.48,228.66a2.25,2.25,0,0,0,.92-.26,2.27,2.27,0,0,1-1.32-1.93l-.44-8a2.28,2.28,0,0,1,1.22-2.14,2.24,2.24,0,0,0-1.08-.22,2.28,2.28,0,0,0-2.15,2.4l.44,8A2.28,2.28,0,0,0,50.48,228.66Z" transform="translate(-36.89)"/></g><g id="HeartHandBrush"><rect id="_Rectangle_9" data-name="&lt;Rectangle&gt;" class="cls-2" x="372.69" y="79.49" width="5.64" height="9.81" rx="2.25" ry="2.25" transform="translate(244.01 -288.67) rotate(63.1)"/></g></g></svg>